# xmcd
#
# Track frame offsets:
#	150
#	9122
#	19080
#	29287
#	42215
#	51155
#	67767
#	83620
#	96317
#	108660
#	118732
#
# Disc length: 1695 seconds
#
# Revision: 0
# Processed by: cddbd v1.5.1PL0 Copyright (c) Steve Scherf et al.
# Submitted via: dBpowerAMP V4.0
#
DISCID=7e069d0b
DTITLE=Blind Boys of Alabama - Original Blind Boys of Alabama
DYEAR=1990
DGENRE=Gospel
TTITLE0=Sit Down And Rest Awhile
TTITLE1=He's Sweet I Know
TTITLE2=Hills of Calvary
TTITLE3=Mother's On The Train
TTITLE4=Working On The Building
TTITLE5=Oh This I Know
TTITLE6=Our Revival Time
TTITLE7=When I Lost My Mother
TTITLE8=My God Can Do No Wrong
TTITLE9=Satisfied With Jesus
TTITLE10=Hop, Skip and Jump
EXTD=
EXTT0=
EXTT1=
EXTT2=
EXTT3=
EXTT4=
EXTT5=
EXTT6=
EXTT7=
EXTT8=
EXTT9=
EXTT10=
PLAYORDER=
